<svg id="Layer_1" data-name="Layer 1" xmlns="http://www.w3.org/2000/svg" viewBox="0 0 400 400"><defs><style>.cls-1{fill:#01a9ed;}.cls-2{fill:#fff;fill-rule:evenodd;}</style></defs><title>socialcircular-logo-avatar copy</title><rect class="cls-1" x="-2" y="-2" width="404" height="404"/><g id="Artwork_1" data-name="Artwork 1"><polygon class="cls-2" points="247.69 256.84 231.65 277.88 231.06 277.88 200.35 235.83 168.94 277.88 159.21 277.88 157.81 277.88 148.54 277.88 148.08 277.88 137.42 277.88 184.24 215.3 140.66 158.74 151.32 158.74 152.95 158.74 161.06 158.74 163.61 158.74 173.34 158.74 200.5 195 227.81 158.74 238.48 158.74 239.17 158.74 248.21 158.74 249.83 158.74 259.57 158.74 216.46 215.3 247.69 256.84"/><path class="cls-2" d="M276.72,249.14a14.6,14.6,0,1,1-14.6,14.6,14.6,14.6,0,0,1,14.6-14.6"/><polygon class="cls-2" points="279.74 214.59 279.74 127.45 120.26 127.45 120.26 293.41 219.63 293.41 210.8 305 108.68 305 108.68 95 291.32 95 291.32 199.39 279.74 214.59"/></g></svg>